<mxfile host="app.diagrams.net" agent="Mozilla/5.0 (Macintosh; Intel Mac OS X 10_15_7) AppleWebKit/537.36 (KHTML, like Gecko) Chrome/141.0.0.0 Safari/537.36" version="28.2.7">
  <diagram name="Arquitectura de Red - Clínica Salud Digital" id="xCzuGam6SKJgWLf-MmOx">
    <mxGraphModel dx="1629" dy="877" grid="1" gridSize="10" guides="1" tooltips="1" connect="1" arrows="1" fold="1" page="1" pageScale="1" pageWidth="850" pageHeight="1100" math="0" shadow="0">
      <root>
        <mxCell id="0" />
        <mxCell id="1" parent="0" />
        <mxCell id="Pkjh9wuOCZVkAxIQtO-T-48" value="Sistema de Detección de Amenazas y Análisis Forense de Red" style="text;html=1;strokeColor=none;fillColor=none;align=center;verticalAlign=middle;whiteSpace=wrap;rounded=0;fontSize=18;fontStyle=1" vertex="1" parent="1">
          <mxGeometry x="234.5" y="20" width="700" height="30" as="geometry" />
        </mxCell>
        <mxCell id="Pkjh9wuOCZVkAxIQtO-T-49" value="" style="rounded=1;whiteSpace=wrap;html=1;fillColor=#f5f5f5;strokeColor=#666666;dashed=1;dashPattern=8 8;" vertex="1" parent="1">
          <mxGeometry x="40" y="120" width="180" height="280" as="geometry" />
        </mxCell>
        <mxCell id="Pkjh9wuOCZVkAxIQtO-T-50" value="Red Empresarial" style="text;html=1;strokeColor=none;fillColor=none;align=center;verticalAlign=middle;whiteSpace=wrap;rounded=0;fontSize=14;fontStyle=1" vertex="1" parent="1">
          <mxGeometry x="70" y="130" width="120" height="20" as="geometry" />
        </mxCell>
        <mxCell id="Pkjh9wuOCZVkAxIQtO-T-51" value="PC Empleado 1" style="shape=mxgraph.cisco.computers_and_peripherals.pc;html=1;pointerEvents=1;dashed=0;fillColor=#036897;strokeColor=#ffffff;strokeWidth=2;verticalLabelPosition=bottom;verticalAlign=top;align=center;outlineConnect=0;" vertex="1" parent="1">
          <mxGeometry x="60" y="170" width="50" height="43" as="geometry" />
        </mxCell>
        <mxCell id="Pkjh9wuOCZVkAxIQtO-T-52" value="PC Empleado 2" style="shape=mxgraph.cisco.computers_and_peripherals.pc;html=1;pointerEvents=1;dashed=0;fillColor=#036897;strokeColor=#ffffff;strokeWidth=2;verticalLabelPosition=bottom;verticalAlign=top;align=center;outlineConnect=0;" vertex="1" parent="1">
          <mxGeometry x="150" y="170" width="50" height="43" as="geometry" />
        </mxCell>
        <mxCell id="Pkjh9wuOCZVkAxIQtO-T-53" value="IoT Medical" style="ellipse;shape=cloud;whiteSpace=wrap;html=1;fillColor=#ffe6cc;strokeColor=#d79b00;" vertex="1" parent="1">
          <mxGeometry x="60" y="250" width="70" height="50" as="geometry" />
        </mxCell>
        <mxCell id="Pkjh9wuOCZVkAxIQtO-T-54" value="Servidor Interno" style="shape=cylinder3;whiteSpace=wrap;html=1;boundedLbl=1;backgroundOutline=1;size=15;fillColor=#d5e8d4;strokeColor=#82b366;" vertex="1" parent="1">
          <mxGeometry x="150" y="250" width="60" height="70" as="geometry" />
        </mxCell>
        <mxCell id="Pkjh9wuOCZVkAxIQtO-T-55" value="Servidor DNS" style="rounded=1;whiteSpace=wrap;html=1;fillColor=#dae8fc;strokeColor=#6c8ebf;fontSize=14;fontStyle=1" vertex="1" parent="1">
          <mxGeometry x="280" y="220" width="120" height="60" as="geometry" />
        </mxCell>
        <mxCell id="Pkjh9wuOCZVkAxIQtO-T-56" value="Consultas DNS" style="endArrow=classic;html=1;rounded=0;entryX=0;entryY=0.5;entryDx=0;entryDy=0;exitX=1;exitY=0.5;exitDx=0;exitDy=0;strokeWidth=2;strokeColor=#666666;" edge="1" parent="1" source="Pkjh9wuOCZVkAxIQtO-T-49" target="Pkjh9wuOCZVkAxIQtO-T-55">
          <mxGeometry width="50" height="50" relative="1" as="geometry">
            <mxPoint x="220" y="260" as="sourcePoint" />
            <mxPoint x="270" y="210" as="targetPoint" />
          </mxGeometry>
        </mxCell>
        <mxCell id="Pkjh9wuOCZVkAxIQtO-T-57" value="" style="rounded=1;whiteSpace=wrap;html=1;fillColor=#fff2cc;strokeColor=#d6b656;dashed=1;dashPattern=8 8;" vertex="1" parent="1">
          <mxGeometry x="460" y="100" width="280" height="320" as="geometry" />
        </mxCell>
        <mxCell id="Pkjh9wuOCZVkAxIQtO-T-58" value="Sistema de Detección y Análisis Forense" style="text;html=1;strokeColor=none;fillColor=none;align=center;verticalAlign=middle;whiteSpace=wrap;rounded=0;fontSize=14;fontStyle=1;fontColor=#d79b00;" vertex="1" parent="1">
          <mxGeometry x="470" y="110" width="260" height="20" as="geometry" />
        </mxCell>
        <mxCell id="Pkjh9wuOCZVkAxIQtO-T-59" value="Motor de Captura&#xa;(Node.js)" style="rounded=1;whiteSpace=wrap;html=1;fillColor=#e1d5e7;strokeColor=#9673a6;" vertex="1" parent="1">
          <mxGeometry x="480" y="150" width="120" height="50" as="geometry" />
        </mxCell>
        <mxCell id="Pkjh9wuOCZVkAxIQtO-T-60" value="Motor de Análisis&#xa;Detección de Amenazas" style="rounded=1;whiteSpace=wrap;html=1;fillColor=#e1d5e7;strokeColor=#9673a6;" vertex="1" parent="1">
          <mxGeometry x="480" y="220" width="120" height="60" as="geometry" />
        </mxCell>
        <mxCell id="Pkjh9wuOCZVkAxIQtO-T-61" value="Sistema de&#xa;Integridad (SHA-256)" style="rounded=1;whiteSpace=wrap;html=1;fillColor=#e1d5e7;strokeColor=#9673a6;" vertex="1" parent="1">
          <mxGeometry x="480" y="300" width="120" height="50" as="geometry" />
        </mxCell>
        <mxCell id="Pkjh9wuOCZVkAxIQtO-T-62" value="Sistema de&#xa;Alertas" style="rounded=1;whiteSpace=wrap;html=1;fillColor=#ffe6cc;strokeColor=#d79b00;" vertex="1" parent="1">
          <mxGeometry x="480" y="360" width="120" height="40" as="geometry" />
        </mxCell>
        <mxCell id="Pkjh9wuOCZVkAxIQtO-T-63" value="Copia de Tráfico" style="endArrow=classic;html=1;rounded=0;exitX=1;exitY=0.5;exitDx=0;exitDy=0;entryX=0;entryY=0.5;entryDx=0;entryDy=0;strokeWidth=2;strokeColor=#6c8ebf;" edge="1" parent="1" source="Pkjh9wuOCZVkAxIQtO-T-55" target="Pkjh9wuOCZVkAxIQtO-T-59">
          <mxGeometry width="50" height="50" relative="1" as="geometry">
            <mxPoint x="400" y="250" as="sourcePoint" />
            <mxPoint x="450" y="200" as="targetPoint" />
          </mxGeometry>
        </mxCell>
        <mxCell id="Pkjh9wuOCZVkAxIQtO-T-64" value="" style="endArrow=classic;html=1;rounded=0;exitX=0.5;exitY=1;exitDx=0;exitDy=0;entryX=0.5;entryY=0;entryDx=0;entryDy=0;strokeWidth=2;strokeColor=#9673a6;" edge="1" parent="1" source="Pkjh9wuOCZVkAxIQtO-T-59" target="Pkjh9wuOCZVkAxIQtO-T-60">
          <mxGeometry width="50" height="50" relative="1" as="geometry">
            <mxPoint x="540" y="250" as="sourcePoint" />
            <mxPoint x="540" y="220" as="targetPoint" />
          </mxGeometry>
        </mxCell>
        <mxCell id="Pkjh9wuOCZVkAxIQtO-T-65" value="" style="endArrow=classic;html=1;rounded=0;exitX=0.5;exitY=1;exitDx=0;exitDy=0;entryX=0.5;entryY=0;entryDx=0;entryDy=0;strokeWidth=2;strokeColor=#9673a6;" edge="1" parent="1" source="Pkjh9wuOCZVkAxIQtO-T-60" target="Pkjh9wuOCZVkAxIQtO-T-61">
          <mxGeometry width="50" height="50" relative="1" as="geometry">
            <mxPoint x="540" y="280" as="sourcePoint" />
            <mxPoint x="540" y="300" as="targetPoint" />
          </mxGeometry>
        </mxCell>
        <mxCell id="Pkjh9wuOCZVkAxIQtO-T-66" value="" style="rounded=1;whiteSpace=wrap;html=1;fillColor=#f8cecc;strokeColor=#b85450;dashed=1;dashPattern=8 8;" vertex="1" parent="1">
          <mxGeometry x="460" y="460" width="280" height="100" as="geometry" />
        </mxCell>
        <mxCell id="Pkjh9wuOCZVkAxIQtO-T-67" value="APIs de Threat Intelligence (Externas)" style="text;html=1;strokeColor=none;fillColor=none;align=center;verticalAlign=middle;whiteSpace=wrap;rounded=0;fontSize=12;fontStyle=1;fontColor=#b85450;" vertex="1" parent="1">
          <mxGeometry x="470" y="470" width="260" height="20" as="geometry" />
        </mxCell>
        <mxCell id="Pkjh9wuOCZVkAxIQtO-T-68" value="VirusTotal" style="ellipse;shape=cloud;whiteSpace=wrap;html=1;fillColor=#f8cecc;strokeColor=#b85450;" vertex="1" parent="1">
          <mxGeometry x="480" y="500" width="70" height="45" as="geometry" />
        </mxCell>
        <mxCell id="Pkjh9wuOCZVkAxIQtO-T-69" value="AbuseIPDB" style="ellipse;shape=cloud;whiteSpace=wrap;html=1;fillColor=#f8cecc;strokeColor=#b85450;" vertex="1" parent="1">
          <mxGeometry x="565" y="500" width="70" height="45" as="geometry" />
        </mxCell>
        <mxCell id="Pkjh9wuOCZVkAxIQtO-T-70" value="Cisco Talos" style="ellipse;shape=cloud;whiteSpace=wrap;html=1;fillColor=#f8cecc;strokeColor=#b85450;" vertex="1" parent="1">
          <mxGeometry x="650" y="500" width="70" height="45" as="geometry" />
        </mxCell>
        <mxCell id="Pkjh9wuOCZVkAxIQtO-T-71" value="Consultas de&#xa;Reputación" style="endArrow=classic;startArrow=classic;html=1;rounded=0;exitX=0.5;exitY=1;exitDx=0;exitDy=0;entryX=0.5;entryY=0;entryDx=0;entryDy=0;strokeWidth=2;strokeColor=#b85450;dashed=1;" edge="1" parent="1" source="Pkjh9wuOCZVkAxIQtO-T-60" target="Pkjh9wuOCZVkAxIQtO-T-66">
          <mxGeometry width="50" height="50" relative="1" as="geometry">
            <mxPoint x="540" y="280" as="sourcePoint" />
            <mxPoint x="600" y="460" as="targetPoint" />
            <Array as="points">
              <mxPoint x="540" y="430" />
              <mxPoint x="600" y="430" />
            </Array>
          </mxGeometry>
        </mxCell>
        <mxCell id="Pkjh9wuOCZVkAxIQtO-T-72" value="" style="rounded=1;whiteSpace=wrap;html=1;fillColor=#d5e8d4;strokeColor=#82b366;dashed=1;dashPattern=8 8;" vertex="1" parent="1">
          <mxGeometry x="780" y="180" width="160" height="220" as="geometry" />
        </mxCell>
        <mxCell id="Pkjh9wuOCZVkAxIQtO-T-73" value="Bases de Datos Forenses" style="text;html=1;strokeColor=none;fillColor=none;align=center;verticalAlign=middle;whiteSpace=wrap;rounded=0;fontSize=12;fontStyle=1;fontColor=#82b366;" vertex="1" parent="1">
          <mxGeometry x="790" y="190" width="140" height="20" as="geometry" />
        </mxCell>
        <mxCell id="Pkjh9wuOCZVkAxIQtO-T-74" value="InfluxDB&#xa;(Time-Series)&#xa;Logs Inmutables" style="shape=cylinder3;whiteSpace=wrap;html=1;boundedLbl=1;backgroundOutline=1;size=15;fillColor=#d5e8d4;strokeColor=#82b366;" vertex="1" parent="1">
          <mxGeometry x="810" y="230" width="100" height="70" as="geometry" />
        </mxCell>
        <mxCell id="Pkjh9wuOCZVkAxIQtO-T-75" value="MongoDB&#xa;Alertas y&#xa;Metadatos" style="shape=cylinder3;whiteSpace=wrap;html=1;boundedLbl=1;backgroundOutline=1;size=15;fillColor=#d5e8d4;strokeColor=#82b366;" vertex="1" parent="1">
          <mxGeometry x="810" y="315" width="100" height="70" as="geometry" />
        </mxCell>
        <mxCell id="Pkjh9wuOCZVkAxIQtO-T-76" value="Eventos de Red&#xa;con Hash SHA-256" style="endArrow=classic;html=1;rounded=0;exitX=1;exitY=0.5;exitDx=0;exitDy=0;entryX=0;entryY=0.5;entryDx=0;entryDy=0;entryPerimeter=0;strokeWidth=2;strokeColor=#82b366;" edge="1" parent="1" source="Pkjh9wuOCZVkAxIQtO-T-61" target="Pkjh9wuOCZVkAxIQtO-T-74">
          <mxGeometry width="50" height="50" relative="1" as="geometry">
            <mxPoint x="600" y="325" as="sourcePoint" />
            <mxPoint x="810" y="265" as="targetPoint" />
            <Array as="points">
              <mxPoint x="700" y="325" />
              <mxPoint x="700" y="265" />
            </Array>
          </mxGeometry>
        </mxCell>
        <mxCell id="Pkjh9wuOCZVkAxIQtO-T-77" value="Alertas" style="endArrow=classic;html=1;rounded=0;exitX=1;exitY=0.5;exitDx=0;exitDy=0;entryX=0;entryY=0.5;entryDx=0;entryDy=0;entryPerimeter=0;strokeWidth=2;strokeColor=#82b366;" edge="1" parent="1" source="Pkjh9wuOCZVkAxIQtO-T-62" target="Pkjh9wuOCZVkAxIQtO-T-75">
          <mxGeometry width="50" height="50" relative="1" as="geometry">
            <mxPoint x="600" y="380" as="sourcePoint" />
            <mxPoint x="810" y="350" as="targetPoint" />
            <Array as="points">
              <mxPoint x="700" y="380" />
              <mxPoint x="700" y="350" />
            </Array>
          </mxGeometry>
        </mxCell>
        <mxCell id="Pkjh9wuOCZVkAxIQtO-T-78" value="" style="rounded=1;whiteSpace=wrap;html=1;fillColor=#dae8fc;strokeColor=#6c8ebf;dashed=1;dashPattern=8 8;" vertex="1" parent="1">
          <mxGeometry x="980" y="120" width="160" height="280" as="geometry" />
        </mxCell>
        <mxCell id="Pkjh9wuOCZVkAxIQtO-T-79" value="Dashboard Web (React)" style="text;html=1;strokeColor=none;fillColor=none;align=center;verticalAlign=middle;whiteSpace=wrap;rounded=0;fontSize=12;fontStyle=1;fontColor=#6c8ebf;" vertex="1" parent="1">
          <mxGeometry x="990" y="130" width="140" height="20" as="geometry" />
        </mxCell>
        <mxCell id="Pkjh9wuOCZVkAxIQtO-T-80" value="Monitor en&#xa;Tiempo Real" style="rounded=1;whiteSpace=wrap;html=1;fillColor=#dae8fc;strokeColor=#6c8ebf;" vertex="1" parent="1">
          <mxGeometry x="1000" y="160" width="120" height="40" as="geometry" />
        </mxCell>
        <mxCell id="Pkjh9wuOCZVkAxIQtO-T-81" value="Panel de Alertas&#xa;HIGH/MED/LOW" style="rounded=1;whiteSpace=wrap;html=1;fillColor=#dae8fc;strokeColor=#6c8ebf;" vertex="1" parent="1">
          <mxGeometry x="1000" y="210" width="120" height="40" as="geometry" />
        </mxCell>
        <mxCell id="Pkjh9wuOCZVkAxIQtO-T-82" value="Módulo&#xa;Forense" style="rounded=1;whiteSpace=wrap;html=1;fillColor=#dae8fc;strokeColor=#6c8ebf;" vertex="1" parent="1">
          <mxGeometry x="1000" y="260" width="120" height="40" as="geometry" />
        </mxCell>
        <mxCell id="Pkjh9wuOCZVkAxIQtO-T-83" value="Generador de&#xa;Reportes PDF/CSV" style="rounded=1;whiteSpace=wrap;html=1;fillColor=#dae8fc;strokeColor=#6c8ebf;" vertex="1" parent="1">
          <mxGeometry x="1000" y="310" width="120" height="40" as="geometry" />
        </mxCell>
        <mxCell id="Pkjh9wuOCZVkAxIQtO-T-84" value="Datos para&#xa;Visualización" style="endArrow=classic;html=1;rounded=0;exitX=1;exitY=0.5;exitDx=0;exitDy=0;exitPerimeter=0;entryX=0;entryY=0.5;entryDx=0;entryDy=0;strokeWidth=2;strokeColor=#6c8ebf;" edge="1" parent="1" source="Pkjh9wuOCZVkAxIQtO-T-74" target="Pkjh9wuOCZVkAxIQtO-T-80">
          <mxGeometry width="50" height="50" relative="1" as="geometry">
            <mxPoint x="910" y="265" as="sourcePoint" />
            <mxPoint x="1000" y="180" as="targetPoint" />
            <Array as="points">
              <mxPoint x="950" y="265" />
              <mxPoint x="950" y="180" />
            </Array>
          </mxGeometry>
        </mxCell>
        <mxCell id="Pkjh9wuOCZVkAxIQtO-T-85" value="Notificaciones&#xa;por Email" style="shape=hexagon;perimeter=hexagonPerimeter2;whiteSpace=wrap;html=1;fixedSize=1;fillColor=#ffe6cc;strokeColor=#d79b00;" vertex="1" parent="1">
          <mxGeometry x="480" y="620" width="120" height="60" as="geometry" />
        </mxCell>
        <mxCell id="Pkjh9wuOCZVkAxIQtO-T-86" value="Enviar alerta" style="endArrow=classic;html=1;rounded=0;exitX=0.5;exitY=1;exitDx=0;exitDy=0;entryX=0.5;entryY=0;entryDx=0;entryDy=0;strokeWidth=2;strokeColor=#d79b00;dashed=1;" edge="1" parent="1" source="Pkjh9wuOCZVkAxIQtO-T-62" target="Pkjh9wuOCZVkAxIQtO-T-85">
          <mxGeometry width="50" height="50" relative="1" as="geometry">
            <mxPoint x="540" y="400" as="sourcePoint" />
            <mxPoint x="540" y="620" as="targetPoint" />
            <Array as="points">
              <mxPoint x="540" y="580" />
            </Array>
          </mxGeometry>
        </mxCell>
        <mxCell id="Pkjh9wuOCZVkAxIQtO-T-87" value="" style="rounded=1;whiteSpace=wrap;html=1;fillColor=#f5f5f5;strokeColor=#666666;" vertex="1" parent="1">
          <mxGeometry x="40" y="600" width="360" height="100" as="geometry" />
        </mxCell>
        <mxCell id="Pkjh9wuOCZVkAxIQtO-T-88" value="LEYENDA" style="text;html=1;strokeColor=none;fillColor=none;align=left;verticalAlign=middle;whiteSpace=wrap;rounded=0;fontSize=12;fontStyle=1" vertex="1" parent="1">
          <mxGeometry x="50" y="610" width="80" height="20" as="geometry" />
        </mxCell>
        <mxCell id="Pkjh9wuOCZVkAxIQtO-T-89" value="" style="endArrow=classic;html=1;rounded=0;strokeWidth=2;strokeColor=#666666;" edge="1" parent="1">
          <mxGeometry width="50" height="50" relative="1" as="geometry">
            <mxPoint x="60" y="640" as="sourcePoint" />
            <mxPoint x="110" y="640" as="targetPoint" />
          </mxGeometry>
        </mxCell>
        <mxCell id="Pkjh9wuOCZVkAxIQtO-T-90" value="Flujo de datos principal" style="text;html=1;strokeColor=none;fillColor=none;align=left;verticalAlign=middle;whiteSpace=wrap;rounded=0;fontSize=10" vertex="1" parent="1">
          <mxGeometry x="120" y="630" width="130" height="20" as="geometry" />
        </mxCell>
        <mxCell id="Pkjh9wuOCZVkAxIQtO-T-91" value="" style="endArrow=classic;html=1;rounded=0;strokeWidth=2;strokeColor=#b85450;dashed=1;" edge="1" parent="1">
          <mxGeometry width="50" height="50" relative="1" as="geometry">
            <mxPoint x="60" y="665" as="sourcePoint" />
            <mxPoint x="110" y="665" as="targetPoint" />
          </mxGeometry>
        </mxCell>
        <mxCell id="Pkjh9wuOCZVkAxIQtO-T-92" value="Consultas externas (APIs)" style="text;html=1;strokeColor=none;fillColor=none;align=left;verticalAlign=middle;whiteSpace=wrap;rounded=0;fontSize=10" vertex="1" parent="1">
          <mxGeometry x="120" y="655" width="130" height="20" as="geometry" />
        </mxCell>
        <mxCell id="Pkjh9wuOCZVkAxIQtO-T-93" value="" style="shape=cylinder3;whiteSpace=wrap;html=1;boundedLbl=1;backgroundOutline=1;size=5;fillColor=#d5e8d4;strokeColor=#82b366;" vertex="1" parent="1">
          <mxGeometry x="270" y="635" width="30" height="35" as="geometry" />
        </mxCell>
        <mxCell id="Pkjh9wuOCZVkAxIQtO-T-94" value="Bases de datos" style="text;html=1;strokeColor=none;fillColor=none;align=left;verticalAlign=middle;whiteSpace=wrap;rounded=0;fontSize=10" vertex="1" parent="1">
          <mxGeometry x="310" y="640" width="80" height="20" as="geometry" />
        </mxCell>
      </root>
    </mxGraphModel>
  </diagram>
</mxfile>
